<?xml version="1.0" encoding="UTF-8" standalone="no"?>
<!-- Created with Inkscape (http://www.inkscape.org/) -->

<svg
   xmlns:dc="http://purl.org/dc/elements/1.1/"
   xmlns:cc="http://creativecommons.org/ns#"
   xmlns:rdf="http://www.w3.org/1999/02/22-rdf-syntax-ns#"
   xmlns:svg="http://www.w3.org/2000/svg"
   xmlns="http://www.w3.org/2000/svg"
   xmlns:sodipodi="http://sodipodi.sourceforge.net/DTD/sodipodi-0.dtd"
   xmlns:inkscape="http://www.inkscape.org/namespaces/inkscape"
   width="128"
   height="128"
   id="svg2"
   version="1.1"
   inkscape:version="0.48.4 r9939"
   sodipodi:docname="New document 1">
  <defs
     id="defs4" />
  <sodipodi:namedview
     id="base"
     pagecolor="#ffffff"
     bordercolor="#666666"
     borderopacity="1.0"
     inkscape:pageopacity="0.0"
     inkscape:pageshadow="2"
     inkscape:zoom="3.265625"
     inkscape:cx="166.22816"
     inkscape:cy="39.460543"
     inkscape:document-units="px"
     inkscape:current-layer="layer1"
     showgrid="false"
     inkscape:window-width="1918"
     inkscape:window-height="1054"
     inkscape:window-x="0"
     inkscape:window-y="24"
     inkscape:window-maximized="0" />
  <metadata
     id="metadata7">
    <rdf:RDF>
      <cc:Work
         rdf:about="">
        <dc:format>image/svg+xml</dc:format>
        <dc:type
           rdf:resource="http://purl.org/dc/dcmitype/StillImage" />
        <dc:title></dc:title>
      </cc:Work>
    </rdf:RDF>
  </metadata>
  <g
     inkscape:label="Layer 1"
     inkscape:groupmode="layer"
     id="layer1"
     transform="translate(0,-3029.0866)">
    <rect
       style="fill:#1a1a1a;fill-opacity:1;stroke:none"
       id="rect3177"
       width="124"
       height="90"
       x="2"
       y="3031.0867"
       rx="2"
       ry="2" />
    <rect
       y="3038.0342"
       x="8.486865"
       height="73.290367"
       width="111.02628"
       id="rect3947"
       style="fill:#4d4d4d;fill-opacity:1;stroke:none" />
    <g
       id="g3161"
       transform="matrix(0.31167936,0,0,0.29252759,36.004146,3048.2455)">
      <g
         transform="translate(3.374635e-6,-15)"
         style="display:none"
         inkscape:label="background"
         id="layer5">
        <rect
           y="15"
           x="0"
           height="365"
           width="200"
           id="rect4022"
           style="opacity:0.8;fill:#000000;fill-opacity:1;stroke:none" />
      </g>
      <g
         transform="translate(-180.07918,-522.53277)"
         style="display:inline"
         id="layer1-7"
         inkscape:label="character">
        <g
           transform="matrix(1.0166062,0,0,1.0166062,1.2237313,-8.8377098)"
           id="g3930">
          <g
             id="g3888"
             transform="matrix(0.98832117,0,0,0.98832117,3.7075063,6.7892848)">
            <path
               transform="matrix(0.77889448,0,0,0.77889448,102.6971,425.47025)"
               d="m 344.91297,256.16711 c 0,69.17436 -56.07689,125.25125 -125.25124,125.25125 -69.17435,0 -125.251246,-56.07689 -125.251246,-125.25125 0,-69.17435 56.076896,-125.25124 125.251246,-125.25124 69.17435,0 125.25124,56.07689 125.25124,125.25124 z"
               sodipodi:ry="125.25124"
               sodipodi:rx="125.25124"
               sodipodi:cy="256.16711"
               sodipodi:cx="219.66173"
               id="path3050"
               style="fill:#b0bc15;fill-opacity:1;stroke:#1a1a1a;stroke-width:5.06201172;stroke-miterlimit:4;stroke-dasharray:none"
               sodipodi:type="arc" />
            <path
               transform="matrix(0.53120051,0,0,0.53120051,173.24207,472.24301)"
               sodipodi:type="arc"
               style="fill:#d1d59f;fill-opacity:1;stroke:none"
               id="path3820"
               sodipodi:cx="219.66173"
               sodipodi:cy="256.16711"
               sodipodi:rx="125.25124"
               sodipodi:ry="125.25124"
               d="m 344.91297,256.16711 c 0,69.17436 -56.07689,125.25125 -125.25124,125.25125 -69.17435,0 -125.251246,-56.07689 -125.251246,-125.25125 0,-69.17435 56.076896,-125.25124 125.251246,-125.25124 69.17435,0 125.25124,56.07689 125.25124,125.25124 z" />
            <path
               d="m 344.91297,256.16711 c 0,69.17436 -56.07689,125.25125 -125.25124,125.25125 -69.17435,0 -125.251246,-56.07689 -125.251246,-125.25125 0,-69.17435 56.076896,-125.25124 125.251246,-125.25124 69.17435,0 125.25124,56.07689 125.25124,125.25124 z"
               sodipodi:ry="125.25124"
               sodipodi:rx="125.25124"
               sodipodi:cy="256.16711"
               sodipodi:cx="219.66173"
               id="path3822"
               style="fill:#ffffff;fill-opacity:1;stroke:none"
               sodipodi:type="arc"
               transform="matrix(0.35756673,0,0,0.35756673,219.67502,511.45503)" />
            <path
               transform="matrix(0.24653057,0,0,0.24653057,252.53503,534.90609)"
               sodipodi:type="arc"
               style="fill:#000000;fill-opacity:0.91764706;stroke:none"
               id="path3824"
               sodipodi:cx="219.66173"
               sodipodi:cy="256.16711"
               sodipodi:rx="125.25124"
               sodipodi:ry="125.25124"
               d="m 344.91297,256.16711 c 0,69.17436 -56.07689,125.25125 -125.25124,125.25125 -69.17435,0 -125.251246,-56.07689 -125.251246,-125.25125 0,-69.17435 56.076896,-125.25124 125.251246,-125.25124 69.17435,0 125.25124,56.07689 125.25124,125.25124 z" />
            <path
               d="m 344.91297,256.16711 c 0,69.17436 -56.07689,125.25125 -125.25124,125.25125 -69.17435,0 -125.251246,-56.07689 -125.251246,-125.25125 0,-69.17435 56.076896,-125.25124 125.251246,-125.25124 69.17435,0 125.25124,56.07689 125.25124,125.25124 z"
               sodipodi:ry="125.25124"
               sodipodi:rx="125.25124"
               sodipodi:cy="256.16711"
               sodipodi:cx="219.66173"
               id="path3826"
               style="fill:#ffffff;fill-opacity:0.91764706;stroke:none"
               sodipodi:type="arc"
               transform="matrix(0.1238064,0,0,0.1238064,289.16206,557.8624)" />
            <path
               id="path3828"
               d="m 252.94822,655.72765 c -12.9795,2.60911 -24.24607,8.97677 -32.8768,17.75689 11.28234,27.85439 41.10161,44.63846 71.64169,38.49936 12.98271,-2.60975 24.24211,-8.98902 32.87367,-17.77249 -11.28769,-27.84403 -41.10481,-44.62158 -71.63856,-38.48376 z"
               style="fill:#b0bc16;fill-opacity:1;stroke:none"
               inkscape:connector-curvature="0" />
            <path
               transform="matrix(0.65906456,0,0,0.65906456,136.68363,473.36766)"
               d="m 202.66784,303.37234 c 0,9.03786 -7.32663,16.36449 -16.36448,16.36449 -9.03785,0 -16.36448,-7.32663 -16.36448,-16.36449 0,-9.03785 7.32663,-16.36448 16.36448,-16.36448 9.03785,0 16.36448,7.32663 16.36448,16.36448 z"
               sodipodi:ry="16.364483"
               sodipodi:rx="16.364483"
               sodipodi:cy="303.37234"
               sodipodi:cx="186.30336"
               id="path3835"
               style="fill:#c2ca35;fill-opacity:1;stroke:none"
               sodipodi:type="arc" />
            <path
               d="m 219.03233,741.59436 c 0,0.78212 -0.77494,1.41616 -1.73086,1.41616 -0.95593,0 -1.73086,-0.63404 -1.73086,-1.41616 0,-0.78212 0.77493,-1.41616 1.73086,-1.41616 0.95592,0 1.73086,0.63404 1.73086,1.41616 z"
               sodipodi:ry="1.4161572"
               sodipodi:rx="1.7308588"
               sodipodi:cy="741.59436"
               sodipodi:cx="217.30147"
               id="path3886"
               style="fill:#a9b601;fill-opacity:1;stroke:none"
               sodipodi:type="arc" />
          </g>
          <path
             style="fill:#b0bc15;fill-opacity:1;stroke:#1a1a1a;stroke-width:3.89672589;stroke-miterlimit:4;stroke-dasharray:none"
             d="m 216.71472,706.56121 c -2.3849,-0.0284 -4.81475,0.31068 -7.21875,1 -15.38557,4.41166 -24.38296,22.49678 -20.09375,40.40625 3.45517,14.42695 19.38493,20.9738 26.6875,25.3125 7.3868,16.59148 22.38691,29.0271 40.5625,32.90625 l -1.8186,56.96061 c -1.2531,0.80654 -5.3064,4.10434 -5.3064,8.44564 0,4.51893 3.66857,8.1875 8.1875,8.1875 4.51893,0 8.04171,-3.61718 8.04171,-8.13611 0,-4.06344 -2.89158,-6.49137 -4.92735,-8.10597 l 7.38564,-56.07042 c 0.16699,0.001 0.33267,0 0.5,0 24.62169,0 43.7179,-12.93397 51.95554,-34.66989 10.23196,-5.37174 19.79503,-12.3272 24.01321,-23.23636 6.26816,-16.21085 0.455,-33.57868 -13,-38.78125 -7.33739,-2.83711 -12.29417,-0.76011 -22.28125,3 -11.128,4.41827 -23.26834,6.84375 -35.96875,6.84375 -15.81894,0 -30.75648,-3.78444 -43.96875,-10.46875 -3.93457,-2.25488 -8.27638,-3.54051 -12.75,-3.59375 z"
             id="path3050-0"
             inkscape:connector-curvature="0"
             sodipodi:nodetypes="ssscccsssccscsscscs" />
        </g>
      </g>
    </g>
  </g>
</svg>
