<?xml version="1.0" encoding="UTF-8" standalone="no"?>
<!-- Created with Inkscape (http://www.inkscape.org/) -->

<svg
   xmlns:dc="http://purl.org/dc/elements/1.1/"
   xmlns:cc="http://creativecommons.org/ns#"
   xmlns:rdf="http://www.w3.org/1999/02/22-rdf-syntax-ns#"
   xmlns:svg="http://www.w3.org/2000/svg"
   xmlns="http://www.w3.org/2000/svg"
   xmlns:sodipodi="http://sodipodi.sourceforge.net/DTD/sodipodi-0.dtd"
   xmlns:inkscape="http://www.inkscape.org/namespaces/inkscape"
   width="128"
   height="128"
   id="svg3061"
   version="1.1"
   inkscape:version="0.48.4 r9939"
   sodipodi:docname="monitor.svg"
   inkscape:export-filename="/home/doehlman/code/rtc.io/screenshare/images/icon38.png"
   inkscape:export-xdpi="26.719999"
   inkscape:export-ydpi="26.719999">
  <defs
     id="defs3063" />
  <sodipodi:namedview
     id="base"
     pagecolor="#ffffff"
     bordercolor="#666666"
     borderopacity="1.0"
     inkscape:pageopacity="0.0"
     inkscape:pageshadow="2"
     inkscape:zoom="2.8"
     inkscape:cx="160.36882"
     inkscape:cy="17.517041"
     inkscape:document-units="px"
     inkscape:current-layer="layer1"
     showgrid="false"
     inkscape:window-width="1916"
     inkscape:window-height="1177"
     inkscape:window-x="0"
     inkscape:window-y="19"
     inkscape:window-maximized="0" />
  <metadata
     id="metadata3066">
    <rdf:RDF>
      <cc:Work
         rdf:about="">
        <dc:format>image/svg+xml</dc:format>
        <dc:type
           rdf:resource="http://purl.org/dc/dcmitype/StillImage" />
        <dc:title></dc:title>
      </cc:Work>
    </rdf:RDF>
  </metadata>
  <g
     inkscape:label="Layer 1"
     inkscape:groupmode="layer"
     id="layer1"
     transform="translate(0,-924.36218)">
    <g
       id="g3055"
       transform="matrix(11.998673,0,0,11.998673,-113.06737,813.28363)">
      <path
         style="fill:#333333"
         id="path3037"
         d="m 15.813927,18.08305 c 0.0092,0.108168 0.01408,0.21846 0.01408,0.330197 0,0.127941 -0.0067,0.256929 -0.01938,0.383898 h -0.08725 -0.0939 c 0.01299,-0.123887 0.02024,-0.252107 0.02024,-0.383898 0,-0.03065 -3.86e-4,-0.06112 -0.0012,-0.0914 -6.76e-4,-0.02565 -0.0017,-0.05109 -0.0028,-0.07645 -1.93e-4,-0.0042 -2.88e-4,-0.0084 -4.81e-4,-0.01246 -0.0134,-0.279102 -0.05746,-0.539597 -0.125133,-0.767313 H 13.99648 c -0.06759,0.227716 -0.111829,0.488211 -0.125134,0.767313 -1.92e-4,0.0039 -1.92e-4,0.0081 -4.81e-4,0.0122 -0.0012,0.02555 -0.0021,0.05091 -0.0028,0.07684 -6.75e-4,0.03018 -0.0012,0.06064 -0.0012,0.09129 0,0.131791 0.0072,0.260014 0.02025,0.383898 h -0.09391 -0.08725 c -0.0126,-0.12697 -0.01947,-0.255963 -0.01947,-0.383898 0,-0.111737 0.005,-0.222027 0.01408,-0.330197 -0.955983,0.14307 -1.625633,0.474328 -1.625633,0.860057 0,0.516554 1.200859,0.935352 2.682074,0.935352 1.481407,0 2.682268,-0.418798 2.682268,-0.935352 1.93e-4,-0.385729 -0.669459,-0.716892 -1.625346,-0.860057 z"
         inkscape:connector-curvature="0" />
      <path
         style="fill:#4d4d4d"
         id="path3035"
         d="m 11.524634,17.96864 c -1.00219,0 -1.8174505,-0.815142 -1.8174505,-1.817331 v -5.076354 c 0,-1.00219 0.8152605,-1.8174489 1.8174505,-1.8174489 h 6.465224 c 1.002192,0 1.81745,0.8152589 1.81745,1.8174489 v 5.076471 c 0,1.002072 -0.815258,1.817332 -1.81745,1.817332 0,-1.18e-4 -6.460595,-1.18e-4 -6.465224,-1.18e-4 z m 5.907041,-0.94261 c 0.731466,0 1.326325,-0.59486 1.326325,-1.326087 v -4.199852 c 0,-0.731228 -0.594859,-1.326204 -1.326325,-1.326204 h -5.348858 c -0.731229,0 -1.326087,0.594976 -1.326087,1.326204 v 4.199852 c 0,0.731227 0.594978,1.326087 1.326087,1.326087 0.02527,0 0.05247,-9.5e-4 0.08581,-0.003 l 0.103141,-0.0064 v 0.0095 h 5.159907 z"
         inkscape:connector-curvature="0" />
    </g>
  </g>
</svg>
